<svg width="228" height="72" viewBox="0 0 228 72" fill="none" xmlns="http://www.w3.org/2000/svg">
<path d="M5.20312 17.3672H37.9688V23.8828H12.6328V33.4688H34.1484V39.5859H12.6328V54H5.20312V17.3672ZM43.7578 47.4844H52.0781V24.6797C50.9844 24.9297 49.9297 25.2578 48.9141 25.6641C47.9141 26.0703 47 26.5625 46.1719 27.1406L42.5156 21.9141C43.8594 21.0703 45.2266 20.3594 46.6172 19.7812C48.0234 19.1875 49.4375 18.7188 50.8594 18.375C52.2969 18.0156 53.7344 17.7578 55.1719 17.6016C56.625 17.4453 58.0703 17.3672 59.5078 17.3672L59.4844 17.4141H59.5078V47.4844H67.4531V54H43.7578V47.4844Z" fill="#F4EDEA"/>
<path d="M93.4766 12.5156H100.203L78.4297 62.2969H71.7031L93.4766 12.5156Z" fill="#00B99C"/>
<path d="M109.203 17.3672H127.836C130.648 17.3672 133.086 17.6641 135.148 18.2578C137.211 18.8359 138.922 19.6797 140.281 20.7891C141.641 21.8984 142.648 23.25 143.305 24.8438C143.977 26.4375 144.312 28.2422 144.312 30.2578C144.312 31.6172 144.148 32.9141 143.82 34.1484C143.492 35.3672 142.984 36.4922 142.297 37.5234C141.625 38.5547 140.773 39.4766 139.742 40.2891C138.711 41.0859 137.5 41.75 136.109 42.2812L144.078 54H134.984L128.094 43.5938H127.883L116.633 43.5703V54H109.203V17.3672ZM128.023 37.1484C129.43 37.1484 130.656 36.9844 131.703 36.6562C132.766 36.3281 133.648 35.8672 134.352 35.2734C135.07 34.6797 135.602 33.9609 135.945 33.1172C136.305 32.2578 136.484 31.3047 136.484 30.2578C136.484 28.2109 135.781 26.6328 134.375 25.5234C132.969 24.3984 130.852 23.8359 128.023 23.8359H116.633V37.1484H128.023ZM153.125 17.3672H184.32V23.8828H160.555V31.1953H181.602V37.3125H160.555V47.5078H184.812V54H153.125V17.3672ZM193.062 17.3672H225.828V23.8828H200.492V33.4688H222.008V39.5859H200.492V54H193.062V17.3672Z" fill="#F4EDEA"/>
</svg>
