<svg width="228" height="51" viewBox="0 0 228 51" fill="none" xmlns="http://www.w3.org/2000/svg">
<path d="M5.20312 5.36719H37.9688V11.8828H12.6328V21.4688H34.1484V27.5859H12.6328V42H5.20312V5.36719ZM43.7578 35.4844H52.0781V12.6797C50.9844 12.9297 49.9297 13.2578 48.9141 13.6641C47.9141 14.0703 47 14.5625 46.1719 15.1406L42.5156 9.91406C43.8594 9.07031 45.2266 8.35938 46.6172 7.78125C48.0234 7.1875 49.4375 6.71875 50.8594 6.375C52.2969 6.01563 53.7344 5.75781 55.1719 5.60156C56.625 5.44531 58.0703 5.36719 59.5078 5.36719L59.4844 5.41406H59.5078V35.4844H67.4531V42H43.7578V35.4844Z" fill="#12263A"/>
<path d="M93.4766 0.515625H100.203L78.4297 50.2969H71.7031L93.4766 0.515625Z" fill="#00B99C"/>
<path d="M109.203 5.36719H127.836C130.648 5.36719 133.086 5.66406 135.148 6.25781C137.211 6.83594 138.922 7.67969 140.281 8.78906C141.641 9.89844 142.648 11.25 143.305 12.8438C143.977 14.4375 144.312 16.2422 144.312 18.2578C144.312 19.6172 144.148 20.9141 143.82 22.1484C143.492 23.3672 142.984 24.4922 142.297 25.5234C141.625 26.5547 140.773 27.4766 139.742 28.2891C138.711 29.0859 137.5 29.75 136.109 30.2812L144.078 42H134.984L128.094 31.5938H127.883L116.633 31.5703V42H109.203V5.36719ZM128.023 25.1484C129.43 25.1484 130.656 24.9844 131.703 24.6562C132.766 24.3281 133.648 23.8672 134.352 23.2734C135.07 22.6797 135.602 21.9609 135.945 21.1172C136.305 20.2578 136.484 19.3047 136.484 18.2578C136.484 16.2109 135.781 14.6328 134.375 13.5234C132.969 12.3984 130.852 11.8359 128.023 11.8359H116.633V25.1484H128.023ZM153.125 5.36719H184.32V11.8828H160.555V19.1953H181.602V25.3125H160.555V35.5078H184.812V42H153.125V5.36719ZM193.062 5.36719H225.828V11.8828H200.492V21.4688H222.008V27.5859H200.492V42H193.062V5.36719Z" fill="#12263A"/>
</svg>
