<svg width="209" height="94" viewBox="0 0 209 94" fill="none" xmlns="http://www.w3.org/2000/svg">
<g clip-path="url(#clip0_111_112)">
<path fill-rule="evenodd" clip-rule="evenodd" d="M170.187 42.0211C167.182 43.2455 164.811 47.4756 161.204 49.8798C160.981 50.0289 160.757 50.1034 160.608 50.1034C160.31 50.1034 159.937 49.8052 159.937 48.4635C159.937 43.8419 161.428 41.6057 162.695 38.3259C167.093 26.9211 174.622 17.1562 181.33 6.49681C181.852 5.67686 182.15 4.78236 182.15 3.81333C182.15 2.99338 181.852 2.3225 181.48 1.50255C181.181 0.831681 179.84 0.235352 178.349 0.235352C177.529 0.235352 176.783 0.309893 175.814 0.309893C172.311 0.309893 171.566 5.45323 170.746 6.79498C165.155 16.2617 158.744 27.9647 155.465 36.2387C154.745 38.0936 153.969 39.9484 153.378 41.8521C150.137 42.7906 147.709 47.3478 143.911 49.8798C143.687 50.0289 143.464 50.1034 143.314 50.1034C143.016 50.1034 142.644 49.8052 142.644 48.4635C142.644 43.8419 144.134 41.6057 145.402 38.3259C149.8 26.9211 157.328 17.1562 164.037 6.49681C164.559 5.67686 164.857 4.78236 164.857 3.81333C164.857 2.99338 164.559 2.3225 164.186 1.50255C163.888 0.831681 162.546 0.235352 161.055 0.235352C160.235 0.235352 159.49 0.309893 158.521 0.309893C155.017 0.309893 154.272 5.45323 153.452 6.79498C147.861 16.2617 141.451 27.9647 138.171 36.2387C137.91 36.9112 137.642 37.5836 137.378 38.2584C137.296 38.302 137.213 38.3493 137.128 38.4004C133.326 40.6367 130.121 44.5874 125.499 47.2708C124.605 47.7926 121.847 49.7307 119.61 49.7307C119.089 49.7307 118.641 49.5816 118.194 49.358C117.523 49.0598 116.852 47.6435 116.852 47.1963C116.852 46.8236 116.927 46.749 117.672 46.3018C124.232 42.3511 129.599 36.686 134.22 31.0209C135.935 28.9337 138.171 24.8339 138.171 21.8523C138.171 19.9142 137.5 17.678 135.189 16.858C133.55 16.2617 131.686 15.9635 130.195 15.9635C126.245 15.9635 123.337 17.7525 121.698 19.467C120.028 21.2493 118.413 23.0794 116.913 24.9739C115.345 23.6205 113.134 23.045 111.038 23.045C108.578 23.045 103.957 26.1011 101.571 27.8901C101.199 28.1883 100.975 28.3374 100.826 28.3374C100.751 28.3374 100.677 28.2628 100.677 28.1138C100.677 28.0392 100.826 27.3683 100.826 26.1757C100.826 25.1321 100.602 23.7904 99.6333 22.1505C99.4097 21.7778 98.068 20.9578 96.4281 20.9578C94.4155 20.9578 92.5519 21.9268 92.5519 22.9704C92.5519 23.7158 93.2228 24.014 93.2228 24.6849C93.2228 25.0576 92.9246 26.772 92.4774 28.4119C91.2102 33.1826 89.6448 37.8786 88.0049 42.5747C87.1104 45.1837 84.1288 47.4945 84.1288 50.327C84.1288 51.2215 84.7251 52.4142 85.5451 53.3087C86.8868 54.7995 87.7067 55.3213 88.8994 55.3213C89.4212 55.3213 90.0175 55.1722 90.5393 54.725C91.6574 53.7559 92.2538 52.7869 92.5519 51.4451C94.49 42.6493 100.081 36.686 106.267 32.7353C108.355 31.3936 111.187 29.9773 111.56 29.9773C111.942 29.9773 112.54 30.1536 113.142 30.3255C111.413 33.1464 110.011 36.1213 109.1 39.2949C108.802 40.3385 108.653 41.3075 108.653 42.3511C108.653 44.0656 109.026 45.8546 109.622 47.569C110.442 49.9543 111.784 52.0415 113.647 53.0105C117.076 54.7995 119.536 55.7685 121.772 55.7685C123.039 55.7685 124.008 55.5449 125.052 54.9486C129.951 52.1766 132.955 50.0736 135.124 48.2057C135.184 50.0996 135.557 51.1488 136.904 52.5633C138.246 53.9795 140.333 55.2467 143.091 55.8431C143.538 55.9176 143.985 55.9922 144.433 55.9922C147.588 55.9922 150.625 53.4273 152.967 50.8848C153.238 51.4396 153.632 51.9692 154.197 52.5633C155.539 53.9795 157.626 55.2467 160.384 55.8431C160.832 55.9176 161.279 55.9922 161.726 55.9922C165.423 55.9922 168.956 52.4728 171.4 49.5924C172.215 51.2772 174.491 52.943 177.231 54.2777C177.976 54.6504 178.871 54.874 179.691 54.874C182.896 54.874 185.207 52.2651 186.996 50.327C191.617 45.2582 194.152 38.9968 196.09 31.0954C196.239 30.4991 196.462 30.2754 196.76 30.2754C197.506 30.2754 198.475 30.2754 199.519 30.1264C201.531 29.8282 203.096 29.1573 204.96 28.8592C206.078 28.6355 205.929 28.2628 206.973 27.8901C207.718 27.592 208.314 27.2938 208.314 26.5484C208.314 25.2812 206.004 23.9394 202.5 23.9394C199.742 23.9394 198.102 24.1631 196.984 24.1631C195.27 24.1631 194.822 23.6413 193.704 20.7342C193.704 20.7342 194.822 23.6413 193.704 20.7342C193.481 20.1378 193.257 19.8397 192.586 19.2434C191.021 17.9016 189.083 17.4544 187.517 17.4544C183.79 17.4544 180.585 21.256 178.349 24.4612C177.827 25.2066 177.082 25.803 176.56 26.6229C173.489 31.2288 170.549 36.4227 170.187 42.0211ZM74.8857 16.6344C76.7492 16.6344 77.7928 16.4853 78.0164 16.4853C78.24 16.4853 78.3891 16.5599 78.3891 16.7835C78.3891 16.9326 78.3146 17.1562 77.7928 18.2743C73.2458 28.0392 70.115 37.9532 67.357 48.9107C67.2825 49.2089 67.0588 50.327 67.0588 51.4451C67.0588 52.4887 67.357 53.6068 68.4006 54.2032C70.4132 55.3958 72.0531 55.9176 73.1712 55.9176C74.8111 55.9176 75.6311 54.874 75.6311 53.1596C75.6311 51.6688 75.7056 50.1034 75.9292 48.9107C78.0164 37.9532 81.1471 29.381 85.9923 20.436C88.3031 16.1872 88.6012 15.9635 88.6012 15.5908C88.6012 15.4418 88.5267 15.2181 88.3776 14.9945C91.3593 14.3236 94.9372 13.8764 98.217 13.8764C98.5898 13.8764 100.081 14.3982 100.304 14.6218C100.826 15.1436 101.348 15.6654 102.242 15.6654C102.988 15.6654 104.255 15.1436 104.702 14.8454C105.746 14.1 106.267 13.2801 106.267 11.9383C106.267 10.6711 101.571 7.54039 98.2916 7.54039C94.2664 7.54039 90.6139 8.06218 87.185 8.73305C85.6941 9.03121 80.3272 9.85116 76.451 9.85116C72.724 9.85116 72.9476 9.32938 71.3822 9.32938C70.4877 9.32938 70.0405 9.77662 69.6678 10.1493C69.2951 10.522 69.0715 12.0129 69.0715 13.3546C69.0715 14.0255 69.0715 14.5473 69.4442 14.9945C70.5623 16.3362 72.724 16.6344 74.8857 16.6344C72.724 16.6344 74.8857 16.6344 74.8857 16.6344ZM130.121 22.6722C130.121 23.3431 129.897 23.7904 129.003 25.2066C128.108 26.6229 128.481 26.6229 127.363 28.1138C125.201 31.0209 122.517 33.928 119.014 37.1332C118.045 38.0277 117.896 38.0277 117.747 38.0277C117.672 38.0277 117.523 37.9532 117.523 37.8041C117.523 37.5805 117.598 37.2823 118.343 35.717C120.654 30.8718 123.487 27.6665 126.617 24.5358C128.332 22.8213 129.375 22.225 129.748 22.225C129.972 22.225 130.121 22.2995 130.121 22.6722C130.121 22.2995 130.121 22.6722 130.121 22.6722ZM187.443 24.6103C187.517 24.6103 187.592 24.6849 187.666 24.8339C187.741 25.0576 187.89 25.2812 188.263 25.5794C188.561 25.803 188.561 26.8466 188.561 27.6665C188.561 34.897 184.461 40.8603 180.436 46.8981C179.541 48.2399 179.02 48.4635 178.572 48.4635C178.2 48.4635 177.603 47.4945 177.38 46.8981C177.082 46.0782 177.007 45.1091 177.007 44.7364C177.007 38.9222 182.523 30.2754 186.176 25.5048C186.772 24.6849 187.219 24.6103 187.443 24.6103C187.219 24.6103 187.443 24.6103 187.443 24.6103Z" fill="#007AC9"/>
<path d="M52.9412 8.4707H17.6471C14.3983 8.4707 11.7647 11.1043 11.7647 14.3531V49.6472C11.7647 52.8959 14.3983 55.5295 17.6471 55.5295H52.9412C56.1899 55.5295 58.8235 52.8959 58.8235 49.6472V14.3531C58.8235 11.1043 56.1899 8.4707 52.9412 8.4707Z" fill="#007AC9"/>
<path d="M49.8823 14.5884H41.1765C39.6171 14.5884 38.3529 15.8525 38.3529 17.4119V32.3531C38.3529 33.9125 39.6171 35.1766 41.1765 35.1766H49.8823C51.4417 35.1766 52.7059 33.9125 52.7059 32.3531V17.4119C52.7059 15.8525 51.4417 14.5884 49.8823 14.5884Z" fill="#F4EDEA"/>
<path d="M29.4118 14.5884H20.7059C19.1465 14.5884 17.8824 15.8525 17.8824 17.4119V44.1178C17.8824 45.6772 19.1465 46.9413 20.7059 46.9413H29.4118C30.9712 46.9413 32.2353 45.6772 32.2353 44.1178V17.4119C32.2353 15.8525 30.9712 14.5884 29.4118 14.5884Z" fill="#F4EDEA"/>
</g>
<path d="M74.32 76.92C74.32 74.6267 74.7867 72.6267 75.72 70.92C76.6533 69.1867 77.9467 67.8533 79.6 66.92C81.2533 65.96 83.1467 65.48 85.28 65.48C88.0267 65.48 90.2933 66.1733 92.08 67.56C93.8933 68.92 95.1067 70.84 95.72 73.32H89.68C89.36 72.36 88.8133 71.6133 88.04 71.08C87.2933 70.52 86.36 70.24 85.24 70.24C83.64 70.24 82.3733 70.8267 81.44 72C80.5067 73.1467 80.04 74.7867 80.04 76.92C80.04 79.0267 80.5067 80.6667 81.44 81.84C82.3733 82.9867 83.64 83.56 85.24 83.56C87.5067 83.56 88.9867 82.5467 89.68 80.52H95.72C95.1067 82.92 93.8933 84.8267 92.08 86.24C90.2667 87.6533 88 88.36 85.28 88.36C83.1467 88.36 81.2533 87.8933 79.6 86.96C77.9467 86 76.6533 84.6667 75.72 82.96C74.7867 81.2267 74.32 79.2133 74.32 76.92ZM105.423 58.4V88H99.8225V58.4H105.423ZM120.795 88.36C118.662 88.36 116.742 87.8933 115.035 86.96C113.329 86 111.982 84.6533 110.995 82.92C110.035 81.1867 109.555 79.1867 109.555 76.92C109.555 74.6533 110.049 72.6533 111.035 70.92C112.049 69.1867 113.422 67.8533 115.155 66.92C116.889 65.96 118.822 65.48 120.955 65.48C123.089 65.48 125.022 65.96 126.755 66.92C128.489 67.8533 129.849 69.1867 130.835 70.92C131.849 72.6533 132.355 74.6533 132.355 76.92C132.355 79.1867 131.835 81.1867 130.795 82.92C129.782 84.6533 128.395 86 126.635 86.96C124.902 87.8933 122.955 88.36 120.795 88.36ZM120.795 83.48C121.809 83.48 122.755 83.24 123.635 82.76C124.542 82.2533 125.262 81.5067 125.795 80.52C126.329 79.5333 126.595 78.3333 126.595 76.92C126.595 74.8133 126.035 73.2 124.915 72.08C123.822 70.9333 122.475 70.36 120.875 70.36C119.275 70.36 117.929 70.9333 116.835 72.08C115.769 73.2 115.235 74.8133 115.235 76.92C115.235 79.0267 115.755 80.6533 116.795 81.8C117.862 82.92 119.195 83.48 120.795 83.48ZM148.743 65.52C151.383 65.52 153.516 66.36 155.143 68.04C156.77 69.6933 157.583 72.0133 157.583 75V88H151.983V75.76C151.983 74 151.543 72.6533 150.663 71.72C149.783 70.76 148.583 70.28 147.063 70.28C145.516 70.28 144.29 70.76 143.383 71.72C142.503 72.6533 142.063 74 142.063 75.76V88H136.463V65.84H142.063V68.6C142.81 67.64 143.756 66.8933 144.903 66.36C146.076 65.8 147.356 65.52 148.743 65.52ZM183.508 76.44C183.508 77.24 183.455 77.96 183.348 78.6H167.148C167.282 80.2 167.842 81.4533 168.828 82.36C169.815 83.2667 171.028 83.72 172.468 83.72C174.548 83.72 176.028 82.8267 176.908 81.04H182.948C182.308 83.1733 181.082 84.9333 179.268 86.32C177.455 87.68 175.228 88.36 172.588 88.36C170.455 88.36 168.535 87.8933 166.828 86.96C165.148 86 163.828 84.6533 162.868 82.92C161.935 81.1867 161.468 79.1867 161.468 76.92C161.468 74.6267 161.935 72.6133 162.868 70.88C163.802 69.1467 165.108 67.8133 166.788 66.88C168.468 65.9467 170.402 65.48 172.588 65.48C174.695 65.48 176.575 65.9333 178.228 66.84C179.908 67.7467 181.202 69.04 182.108 70.72C183.042 72.3733 183.508 74.28 183.508 76.44ZM177.708 74.84C177.682 73.4 177.162 72.2533 176.148 71.4C175.135 70.52 173.895 70.08 172.428 70.08C171.042 70.08 169.868 70.5067 168.908 71.36C167.975 72.1867 167.402 73.3467 167.188 74.84H177.708Z" fill="#12263A"/>
<defs>
<clipPath id="clip0_111_112">
<rect width="208.235" height="64" fill="white"/>
</clipPath>
</defs>
</svg>
